<?xml version="1.0" standalone="no"?><!DOCTYPE svg PUBLIC "-//W3C//DTD SVG 1.1//EN" "http://www.w3.org/Graphics/SVG/1.1/DTD/svg11.dtd"><svg width="155" height="155" xmlns="http://www.w3.org/2000/svg">
 <g>
  <title>background</title>
  <rect fill="none" id="canvas_background" height="157" width="157" y="-1" x="-1"/>
 </g>
 <g>
  <title>Layer 1</title>
  <g id="svg_6">
   <path id="svg_3" fill="#64b054" d="m152.997334,77.373334c0,41.832 -33.912,75.672 -75.672,75.672c-41.832,0 -75.672,-33.84 -75.672,-75.672s33.84,-75.672 75.672,-75.672c41.76,0 75.672,33.84 75.672,75.672z"/>
   <path id="svg_4" fill="#fff" d="m135.573334,73.197334c0,16.128 -11.953,29.16 -26.641,29.16s-26.641,-13.031 -26.641,-29.16c0,-16.128 11.953,-29.16 26.641,-29.16s26.641,13.032 26.641,29.16zm-26.64,-14.256c-4.535,0 -8.207,6.336 -8.207,14.256c0,7.848 3.672,14.256 8.207,14.256c4.537,0 8.281,-6.408 8.281,-14.256c0,-7.92 -3.744,-14.256 -8.281,-14.256zm-25.2,-22.968l-2.305,10.729s-3.24,-1.656 -6.12,-0.145c-2.88,1.512 -2.88,1.512 -3.384,3.024c5.544,5.04 6.048,13.608 4.032,20.664c-1.944,3.744 -4.608,6.192 -7.632,7.848c-6.336,3.384 -15.336,4.104 -21.24,3.672c0.576,1.296 0,2.521 0,2.521s13.608,-0.576 17.136,1.439c5.544,3.024 11.232,6.192 12.745,13.752c2.016,9.576 -4.105,18 -10.585,21.673c-6.408,3.6 -25.128,5.472 -34.704,-3.024c-2.304,-2.304 -4.032,-4.968 -5.112,-8.28c-1.152,-3.384 -1.44,-7.128 0.432,-12.456c1.944,-5.256 5.328,-7.992 5.328,-7.992s-2.304,-2.016 -2.376,-5.399c0,-3.384 2.592,-5.544 3.744,-6.192c-7.056,-5.544 -9.072,-14.112 -6.552,-21.672c4.536,-8.568 13.104,-11.592 22.176,-11.592c4.464,-0.144 13.608,1.08 13.608,1.08s0.792,-0.145 1.8,-1.44s2.232,-5.4 6.696,-6.984c4.465,-1.586 12.313,-1.226 12.313,-1.226zm-32.256,21.6c-3.672,0 -6.696,2.736 -6.696,6.048c0,3.384 3.024,6.12 6.696,6.12c3.744,0 6.696,-2.736 6.696,-6.12c0,-3.312 -2.952,-6.048 -6.696,-6.048zm0.432,42.336c-4.824,0 -8.64,2.016 -8.64,4.464s3.816,4.464 8.64,4.464c4.752,0 8.64,-2.016 8.64,-4.464s-3.888,-4.464 -8.64,-4.464z"/>
  </g>
 </g>
</svg>
